<?xml version="1.0" encoding="UTF-8" standalone="no"?>
<!-- Created with Inkscape (http://www.inkscape.org/) -->

<svg
   xmlns:dc="http://purl.org/dc/elements/1.1/"
   xmlns:cc="http://creativecommons.org/ns#"
   xmlns:rdf="http://www.w3.org/1999/02/22-rdf-syntax-ns#"
   xmlns:svg="http://www.w3.org/2000/svg"
   xmlns="http://www.w3.org/2000/svg"
   xmlns:xlink="http://www.w3.org/1999/xlink"
   xmlns:sodipodi="http://sodipodi.sourceforge.net/DTD/sodipodi-0.dtd"
   xmlns:inkscape="http://www.inkscape.org/namespaces/inkscape"
   width="213.33333"
   height="213.33333"
   id="svg2"
   version="1.1"
   inkscape:version="0.92.3 (2405546, 2018-03-11)"
   sodipodi:docname="forensics.svg"
   inkscape:export-filename="recon_150x150.png"
   inkscape:export-xdpi="67.5"
   inkscape:export-ydpi="67.5"
   viewBox="0 0 200 200">
  <defs
     id="defs4">
    <marker
       inkscape:stockid="Arrow1Mend"
       orient="auto"
       refY="0"
       refX="0"
       id="Arrow1Mend"
       style="overflow:visible">
      <path
         id="path3780"
         d="M 0,0 5,-5 -12.5,0 5,5 Z"
         style="fill-rule:evenodd;stroke:#000000;stroke-width:1.00000003pt"
         transform="matrix(-0.4,0,0,-0.4,-4,0)"
         inkscape:connector-curvature="0" />
    </marker>
    <marker
       inkscape:stockid="Arrow1Lstart"
       orient="auto"
       refY="0"
       refX="0"
       id="Arrow1Lstart"
       style="overflow:visible">
      <path
         id="path3771"
         d="M 0,0 5,-5 -12.5,0 5,5 Z"
         style="fill-rule:evenodd;stroke:#000000;stroke-width:1.00000003pt"
         transform="matrix(0.8,0,0,0.8,10,0)"
         inkscape:connector-curvature="0" />
    </marker>
    <linearGradient
       gradientTransform="matrix(1.35086,0,0,1.35086,1626.5564,-1095.5023)"
       gradientUnits="userSpaceOnUse"
       y2="3068.1101"
       x2="-4118.3901"
       y1="2978.97"
       x1="-4118.3901"
       id="linearGradient4567"
       xlink:href="#linearGradient4561" />
    <linearGradient
       gradientTransform="matrix(1.35086,0,0,1.35086,1626.5564,-1095.5023)"
       gradientUnits="userSpaceOnUse"
       y2="3065.79"
       x2="-4184.29"
       y1="2934.51"
       x1="-4184.29"
       id="linearGradient4557"
       xlink:href="#linearGradient4551" />
    <linearGradient
       gradientTransform="matrix(1.35086,0,0,1.35086,1626.5564,-1095.5023)"
       gradientUnits="userSpaceOnUse"
       y2="3122.3999"
       x2="-4248.9302"
       y1="2978.97"
       x1="-4248.9302"
       id="linearGradient4541"
       xlink:href="#linearGradient4535" />
    <linearGradient
       gradientTransform="matrix(1.35086,0,0,1.35086,1626.5564,-1095.5023)"
       gradientUnits="userSpaceOnUse"
       y2="3068.1101"
       x2="-4342.5"
       y1="2979.1499"
       x1="-4342.5"
       id="linearGradient4531"
       xlink:href="#linearGradient4525" />
    <linearGradient
       gradientTransform="matrix(1.35086,0,0,1.35086,1626.5564,-1095.5023)"
       gradientUnits="userSpaceOnUse"
       y2="3068.3"
       x2="-4444.6401"
       y1="2978.97"
       x1="-4444.6401"
       id="linearGradient4517"
       xlink:href="#linearGradient4511" />
    <linearGradient
       gradientTransform="matrix(1.35086,0,0,1.35086,1626.5564,-1095.5023)"
       gradientUnits="userSpaceOnUse"
       y2="3070.1499"
       x2="-4561.0898"
       y1="2932"
       x1="-4561.0898"
       id="linearGradient4507"
       xlink:href="#linearGradient4501" />
    <linearGradient
       id="linearGradient4501">
      <stop
         style="stop-color:#196eef;stop-opacity:1"
         id="stop4503"
         offset="0" />
      <stop
         style="stop-color:#186dee;stop-opacity:1"
         offset="0.5"
         id="stop4509" />
      <stop
         style="stop-color:#1065e7;stop-opacity:1"
         id="stop4505"
         offset="1" />
    </linearGradient>
    <linearGradient
       id="linearGradient4511">
      <stop
         style="stop-color:#de5744;stop-opacity:1"
         id="stop4513"
         offset="0" />
      <stop
         style="stop-color:#db4632;stop-opacity:1"
         offset="0.5"
         id="stop4523" />
      <stop
         style="stop-color:#d13d29;stop-opacity:1"
         id="stop4515"
         offset="1" />
    </linearGradient>
    <linearGradient
       id="linearGradient4525">
      <stop
         style="stop-color:#ffc01a;stop-opacity:1"
         id="stop4527"
         offset="0" />
      <stop
         style="stop-color:#ffba03;stop-opacity:1"
         offset="0.5"
         id="stop4533" />
      <stop
         style="stop-color:#ffb300;stop-opacity:1"
         id="stop4529"
         offset="1" />
    </linearGradient>
    <linearGradient
       id="linearGradient4535">
      <stop
         style="stop-color:#1a6fef;stop-opacity:1"
         id="stop4537"
         offset="0" />
      <stop
         style="stop-color:#1e72ef;stop-opacity:1"
         offset="0.25"
         id="stop4547" />
      <stop
         style="stop-color:#166bec;stop-opacity:1"
         offset="0.5"
         id="stop4545" />
      <stop
         style="stop-color:#1267e9;stop-opacity:1"
         offset="0.75"
         id="stop4543" />
      <stop
         style="stop-color:#1063e5;stop-opacity:0.87"
         id="stop4539"
         offset="1" />
    </linearGradient>
    <linearGradient
       id="linearGradient4551">
      <stop
         style="stop-color:#0aa561;stop-opacity:1"
         id="stop4553"
         offset="0" />
      <stop
         style="stop-color:#009b58;stop-opacity:1"
         offset="0.5"
         id="stop4559" />
      <stop
         style="stop-color:#00914b;stop-opacity:1"
         id="stop4555"
         offset="1" />
    </linearGradient>
    <linearGradient
       id="linearGradient4561">
      <stop
         style="stop-color:#de5644;stop-opacity:1"
         id="stop4563"
         offset="0" />
      <stop
         style="stop-color:#da4531;stop-opacity:1"
         offset="0.5"
         id="stop4569" />
      <stop
         style="stop-color:#ce3a28;stop-opacity:1"
         id="stop4565"
         offset="1" />
    </linearGradient>
    <style
       id="style2442"
       type="text/css" />
    <marker
       style="overflow:visible"
       id="Arrow1Mend-7"
       refX="0"
       refY="0"
       orient="auto"
       inkscape:stockid="Arrow1Mend">
      <path
         inkscape:connector-curvature="0"
         transform="matrix(-0.4,0,0,-0.4,-4,0)"
         style="fill-rule:evenodd;stroke:#000000;stroke-width:1.00000003pt"
         d="M 0,0 5,-5 -12.5,0 5,5 Z"
         id="path3780-5" />
    </marker>
    <marker
       style="overflow:visible"
       id="Arrow1Lstart-3"
       refX="0"
       refY="0"
       orient="auto"
       inkscape:stockid="Arrow1Lstart">
      <path
         inkscape:connector-curvature="0"
         transform="matrix(0.8,0,0,0.8,10,0)"
         style="fill-rule:evenodd;stroke:#000000;stroke-width:1.00000003pt"
         d="M 0,0 5,-5 -12.5,0 5,5 Z"
         id="path3771-5" />
    </marker>
    <marker
       style="overflow:visible"
       id="Arrow1Mend-70"
       refX="0"
       refY="0"
       orient="auto"
       inkscape:stockid="Arrow1Mend">
      <path
         inkscape:connector-curvature="0"
         transform="matrix(-0.4,0,0,-0.4,-4,0)"
         style="fill-rule:evenodd;stroke:#000000;stroke-width:1.00000003pt"
         d="M 0,0 5,-5 -12.5,0 5,5 Z"
         id="path3780-9" />
    </marker>
    <marker
       style="overflow:visible"
       id="Arrow1Lstart-36"
       refX="0"
       refY="0"
       orient="auto"
       inkscape:stockid="Arrow1Lstart">
      <path
         inkscape:connector-curvature="0"
         transform="matrix(0.8,0,0,0.8,10,0)"
         style="fill-rule:evenodd;stroke:#000000;stroke-width:1.00000003pt"
         d="M 0,0 5,-5 -12.5,0 5,5 Z"
         id="path3771-0" />
    </marker>
    <radialGradient
       id="radialGradient5640"
       gradientUnits="userSpaceOnUse"
       cy="139.37"
       cx="99.958"
       gradientTransform="matrix(-0.21405,1.3758,-1.2457,-0.19403,303.11,18.168)"
       r="45.07">
      <stop
         id="stop4611"
         stop-opacity="0"
         offset="0" />
      <stop
         id="stop4623"
         stop-opacity=".023529"
         offset=".49270" />
      <stop
         id="stop4621"
         stop-opacity=".035294"
         offset=".57087" />
      <stop
         id="stop4619"
         stop-opacity=".066667"
         offset=".63646" />
      <stop
         id="stop4617"
         stop-opacity=".14894"
         offset=".69579" />
      <stop
         id="stop4625"
         stop-opacity=".21277"
         offset=".73030" />
      <stop
         id="stop4613"
         stop-opacity=".54610"
         offset="1" />
    </radialGradient>
    <clipPath
       id="clipPath8976"
       clipPathUnits="userSpaceOnUse">
      <path
         inkscape:connector-curvature="0"
         id="path8978"
         d="M 0,0 Z" />
    </clipPath>
    <clipPath
       id="clipPath11392"
       clipPathUnits="userSpaceOnUse">
      <path
         inkscape:connector-curvature="0"
         id="path11394"
         d="M 0,0 Z" />
    </clipPath>
    <clipPath
       id="clipPath2556"
       clipPathUnits="userSpaceOnUse">
      <path
         inkscape:connector-curvature="0"
         id="path2558"
         d="M 0,0 Z" />
    </clipPath>
    <clipPath
       id="clipPath2462"
       clipPathUnits="userSpaceOnUse">
      <path
         inkscape:connector-curvature="0"
         id="path2464"
         d="M 0,0 Z" />
    </clipPath>
    <marker
       style="overflow:visible"
       id="Arrow1Mend-79"
       refX="0"
       refY="0"
       orient="auto"
       inkscape:stockid="Arrow1Mend">
      <path
         inkscape:connector-curvature="0"
         transform="matrix(-0.4,0,0,-0.4,-4,0)"
         style="fill-rule:evenodd;stroke:#000000;stroke-width:1.00000003pt"
         d="M 0,0 5,-5 -12.5,0 5,5 Z"
         id="path3780-2" />
    </marker>
    <marker
       style="overflow:visible"
       id="Arrow1Lstart-0"
       refX="0"
       refY="0"
       orient="auto"
       inkscape:stockid="Arrow1Lstart">
      <path
         inkscape:connector-curvature="0"
         transform="matrix(0.8,0,0,0.8,10,0)"
         style="fill-rule:evenodd;stroke:#000000;stroke-width:1.00000003pt"
         d="M 0,0 5,-5 -12.5,0 5,5 Z"
         id="path3771-2" />
    </marker>
    <marker
       style="overflow:visible"
       id="Arrow1Mend-2"
       refX="0"
       refY="0"
       orient="auto"
       inkscape:stockid="Arrow1Mend">
      <path
         inkscape:connector-curvature="0"
         transform="matrix(-0.4,0,0,-0.4,-4,0)"
         style="fill-rule:evenodd;stroke:#000000;stroke-width:1.00000003pt"
         d="M 0,0 5,-5 -12.5,0 5,5 Z"
         id="path3780-8" />
    </marker>
    <marker
       style="overflow:visible"
       id="Arrow1Lstart-9"
       refX="0"
       refY="0"
       orient="auto"
       inkscape:stockid="Arrow1Lstart">
      <path
         inkscape:connector-curvature="0"
         transform="matrix(0.8,0,0,0.8,10,0)"
         style="fill-rule:evenodd;stroke:#000000;stroke-width:1.00000003pt"
         d="M 0,0 5,-5 -12.5,0 5,5 Z"
         id="path3771-7" />
    </marker>
    <marker
       style="overflow:visible"
       id="Arrow1Mend-3"
       refX="0"
       refY="0"
       orient="auto"
       inkscape:stockid="Arrow1Mend">
      <path
         inkscape:connector-curvature="0"
         transform="matrix(-0.4,0,0,-0.4,-4,0)"
         style="fill-rule:evenodd;stroke:#000000;stroke-width:1.00000003pt"
         d="M 0,0 5,-5 -12.5,0 5,5 Z"
         id="path3780-1" />
    </marker>
    <marker
       style="overflow:visible"
       id="Arrow1Lstart-94"
       refX="0"
       refY="0"
       orient="auto"
       inkscape:stockid="Arrow1Lstart">
      <path
         inkscape:connector-curvature="0"
         transform="matrix(0.8,0,0,0.8,10,0)"
         style="fill-rule:evenodd;stroke:#000000;stroke-width:1.00000003pt"
         d="M 0,0 5,-5 -12.5,0 5,5 Z"
         id="path3771-78" />
    </marker>
  </defs>
  <sodipodi:namedview
     id="base"
     pagecolor="#ffffff"
     bordercolor="#666666"
     borderopacity="1.0"
     inkscape:pageopacity="0.0"
     inkscape:pageshadow="2"
     inkscape:zoom="1.4"
     inkscape:cx="65.659086"
     inkscape:cy="27.990046"
     inkscape:document-units="px"
     inkscape:current-layer="layer1"
     showgrid="false"
     inkscape:window-width="1320"
     inkscape:window-height="791"
     inkscape:window-x="318"
     inkscape:window-y="181"
     inkscape:window-maximized="0"
     inkscape:snap-grids="true"
     inkscape:snap-global="false" />
  <metadata
     id="metadata7">
    <rdf:RDF>
      <cc:Work
         rdf:about="">
        <dc:format>image/svg+xml</dc:format>
        <dc:type
           rdf:resource="http://purl.org/dc/dcmitype/StillImage" />
        <dc:title></dc:title>
      </cc:Work>
    </rdf:RDF>
  </metadata>
  <g
     inkscape:label="Layer 1"
     inkscape:groupmode="layer"
     id="layer1"
     transform="translate(0,-852.36218)"
     style="display:inline">
    <path
       style="display:inline;fill:#000019;fill-opacity:1;fill-rule:evenodd;stroke:none;stroke-width:0.99655503px;stroke-linecap:butt;stroke-linejoin:miter;stroke-opacity:1"
       d="M 5.2551992,1048.6727 177.66313,1004.8855 184.20416,856.42398 20.196328,857.18881 Z"
       id="path931"
       inkscape:connector-curvature="0"
       sodipodi:nodetypes="ccccc" />
    <text
       xml:space="preserve"
       style="font-style:normal;font-weight:normal;font-size:38.34915924px;line-height:125%;font-family:sans-serif;letter-spacing:0px;word-spacing:0px;display:inline;fill:#000000;fill-opacity:1;stroke:none;stroke-width:0.95872903px;stroke-linecap:butt;stroke-linejoin:miter;stroke-opacity:1"
       x="18.828196"
       y="793.9801"
       id="text935"
       transform="scale(0.79466834,1.2583866)"><tspan
         sodipodi:role="line"
         x="18.828196"
         y="793.9801"
         style="font-style:normal;font-variant:normal;font-weight:bold;font-stretch:normal;font-family:sans-serif;-inkscape-font-specification:'sans-serif Bold';fill:#ffffff;fill-opacity:1;stroke:none;stroke-width:0.95872903px;stroke-opacity:1"
         id="tspan1514">forensics</tspan></text>
    <g
       style="display:inline"
       transform="matrix(0.90346069,0,0,0.89104446,9.076966,63.999133)"
       id="layer1-0"
       inkscape:label="Layer 1">
      <g
         transform="translate(347.14285,-31.428571)"
         id="g3845">
        <path
           style="fill:#9f9f9f;fill-opacity:1;stroke:#9f9f9f;stroke-width:3.5999999;stroke-linecap:butt;stroke-linejoin:miter;stroke-miterlimit:4;stroke-dasharray:none;stroke-opacity:1"
           d="m -220,153.75 6.60715,-8.92857 30.89285,23.03572 -2.42685,4.07151 5.34565,-0.9479 c 0.33128,-0.7147 3.14318,0.46145 5.02807,4.7652 0.67157,2.90262 -0.25159,4.43833 -1.21015,5.9437 -0.75985,2.23586 -2.89361,2.50925 -5.07581,2.37452 -2.98486,-0.22912 -3.37637,-0.72949 -5.17338,-2.633 l -0.6882,-8.32537 -2.76361,4.75134 z"
           id="path3051"
           inkscape:connector-curvature="0"
           transform="translate(0,852.36218)"
           sodipodi:nodetypes="cccccccccccc" />
        <path
           sodipodi:type="arc"
           style="fill:none;stroke:#9f9f9f;stroke-width:6.5999999;stroke-linecap:round;stroke-linejoin:round;stroke-miterlimit:4;stroke-dasharray:none;stroke-dashoffset:0;stroke-opacity:1"
           id="path3053-3"
           sodipodi:cx="-245.44643"
           sodipodi:cy="129.73215"
           sodipodi:rx="32.446609"
           sodipodi:ry="36.178661"
           d="m -212.99982,129.73215 a 32.446609,36.178661 0 0 1 -32.38617,36.1786 32.446609,36.178661 0 0 1 -32.50682,-36.04382 32.446609,36.178661 0 0 1 32.26507,-36.312879 32.446609,36.178661 0 0 1 32.62702,35.908539"
           transform="translate(-0.35714286,850.21932)"
           sodipodi:start="0"
           sodipodi:end="6.2757345"
           sodipodi:open="true" />
        <path
           style="fill:none;stroke:#9f9f9f;stroke-width:3.5999999;stroke-linecap:butt;stroke-linejoin:miter;stroke-miterlimit:4;stroke-dasharray:none;stroke-opacity:1"
           d="m -330,173.92857 0.0523,-37.73273 3.08736,-0.27006 -2.39619,7.82725 2.58636,-1.30294 1.0247,-6.7772 10.72257,-3.62795 -1.07329,5.31338 4.09621,-1.25172 0.67637,-5.2078 11.33728,-3.74837 -0.91602,4.31808 3.8963,-1.37707 0.37629,-4.22712 13.38274,-4.81335 -1.08349,4.95156 3.62041,-0.9981 1.00427,-5.13707 12.07695,-4.21896 -0.45577,4.86258 3.82206,-1.45976 -0.0258,-4.44038 13.58095,-4.96781 -0.49093,4.5382 2.67808,-1.00026 0.23115,-4.54576 13.76839,-4.72081 -0.63851,4.70349 2.87665,-0.83522 0.35395,-4.93148 13.34692,-4.158014 0.14222,3.821664 2.22358,-0.70712 0.68176,-4.076486 13.42034,-5.139149 -0.85718,5.074311 2.92893,-1.307816 1.58171,-4.915054 12.16691,-4.217802 -0.88285,4.87566 3.87826,-1.50208 0.78213,-4.855385 12.47436,-4.200579 -0.36007,4.851032 2.95806,-1.277407 1.07883,-5.33942 5.37187,-2.098974 -0.35714,36.964289 -12.09147,3.99721 0.91126,-5.02631 -3.59672,1.13226 -0.52287,5.62176 -13.05901,3.96178 1.01814,-5.34371 -3.48326,1.03267 -1.14658,5.77947 -12.84574,4.4619 0.95073,-5.73465 -3.4628,1.22684 -0.89582,5.63846 -12.35134,3.98957 0.68823,-4.93258 -3.37461,1.23507 -0.84458,4.9004 -13.39725,4.83483 0.83354,-5.07749 -2.84711,0.85694 -0.85723,5.25291 -13.34779,5.09218 0.73978,-5.71346 -3.0397,1.16352 -0.73592,5.35534 -12.57509,4.54258 0.41544,-5.52441 -3.10285,0.78472 -0.93088,5.86403 -13.72163,4.80035 1.87054,-5.93842 -3.6876,1.05329 -1.50367,6.08411 -12.11766,4.24191 0.90255,-5.75527 -3.21686,1.45097 -0.69702,5.20858 -11.47898,4.31618 0.61138,-5.59091 -3.64579,1.27683 -0.63456,5.60982 z"
           id="path3835"
           inkscape:connector-curvature="0"
           transform="translate(0,852.36218)"
           sodipodi:nodetypes="ccccccccccccccccccccccccccccccccccccccccccccccccccccccccccccccccccccccccccccccccccccccccc" />
        <text
           xml:space="preserve"
           style="font-style:normal;font-weight:normal;line-height:0%;font-family:sans-serif;letter-spacing:0px;word-spacing:0px;fill:#9f9f9f;fill-opacity:1;stroke:#9f9f9f;stroke-width:1;stroke-opacity:1"
           x="-624.11731"
           y="812.00555"
           id="text3837"
           transform="matrix(0.90807202,-0.32187746,0.29306328,0.9973543,0,0)"><tspan
             sodipodi:role="line"
             id="tspan3839"
             x="-624.11731"
             y="812.00555"
             style="font-size:30.69457817px;line-height:1.25;font-family:sans-serif;stroke-width:1"><tspan
               style="font-style:normal;font-variant:normal;font-weight:normal;font-stretch:normal;font-size:18.41674805px;line-height:125%;font-family:sans-serif;-inkscape-font-specification:Sans;text-align:start;writing-mode:lr-tb;text-anchor:start;fill:#9f9f9f;fill-opacity:1;stroke:#9f9f9f;stroke-width:1;stroke-opacity:1"
               id="tspan3841"><tspan
                 style="font-style:normal;font-variant:normal;font-weight:bold;font-stretch:normal;font-size:9.20837402px;line-height:125%;font-family:sans-serif;-inkscape-font-specification:'Sans Bold';text-align:start;writing-mode:lr-tb;text-anchor:start;fill:#9f9f9f;fill-opacity:1;stroke:#9f9f9f;stroke-width:1;stroke-opacity:1"
                 id="tspan3843">SS CRIME SCENE DO NOT CRESS CR</tspan></tspan></tspan></text>
      </g>
    </g>
  </g>
</svg>
